<mxfile host="app.diagrams.net" agent="Mozilla/5.0 (Windows NT 10.0; Win64; x64) AppleWebKit/537.36 (KHTML, like Gecko) Chrome/126.0.0.0 Safari/537.36 OPR/112.0.0.0" version="24.7.16">
  <diagram name="PÃ¡gina-1" id="dD90SmdXsx337cMtAzFO">
    <mxGraphModel grid="1" page="1" gridSize="10" guides="1" tooltips="1" connect="1" arrows="1" fold="1" pageScale="1" pageWidth="827" pageHeight="1169" math="0" shadow="0">
      <root>
        <mxCell id="0" />
        <mxCell id="1" parent="0" />
        <mxCell id="e9J3bj0kBQXm4-Ub7QXE-30" value="" style="edgeStyle=none;curved=1;rounded=0;orthogonalLoop=1;jettySize=auto;html=1;fontSize=12;startSize=8;endSize=8;entryX=0;entryY=0;entryDx=0;entryDy=92.5;entryPerimeter=0;exitX=0;exitY=0;exitDx=210;exitDy=120;exitPerimeter=0;endArrow=none;endFill=0;" edge="1" parent="1" source="EIEUfee_KxQl2WpHq2SJ-2" target="j4q45FdJCVuGdoI92-O5-16">
          <mxGeometry relative="1" as="geometry">
            <mxPoint x="1015" y="335" as="targetPoint" />
          </mxGeometry>
        </mxCell>
        <mxCell id="Qmu4TyXdoGjw1nuUJEtF-1" value="HTTP" style="edgeLabel;html=1;align=center;verticalAlign=middle;resizable=0;points=[];fontSize=12;" connectable="0" vertex="1" parent="e9J3bj0kBQXm4-Ub7QXE-30">
          <mxGeometry x="0.2074" y="-1" relative="1" as="geometry">
            <mxPoint as="offset" />
          </mxGeometry>
        </mxCell>
        <mxCell id="e9J3bj0kBQXm4-Ub7QXE-32" value="" style="edgeStyle=none;curved=1;rounded=0;orthogonalLoop=1;jettySize=auto;html=1;fontSize=12;startSize=8;endSize=8;entryX=0;entryY=0;entryDx=0;entryDy=70;entryPerimeter=0;exitX=0;exitY=0;exitDx=210;exitDy=120;exitPerimeter=0;endArrow=none;endFill=0;" edge="1" parent="1" source="EIEUfee_KxQl2WpHq2SJ-2" target="j4q45FdJCVuGdoI92-O5-26">
          <mxGeometry relative="1" as="geometry">
            <mxPoint x="940" y="340" as="targetPoint" />
          </mxGeometry>
        </mxCell>
        <mxCell id="vqtdteVJLbJTmHlzUTwu-4" value="FTP" style="edgeLabel;html=1;align=center;verticalAlign=middle;resizable=0;points=[];fontSize=12;" connectable="0" vertex="1" parent="e9J3bj0kBQXm4-Ub7QXE-32">
          <mxGeometry x="-0.2562" y="-2" relative="1" as="geometry">
            <mxPoint y="1" as="offset" />
          </mxGeometry>
        </mxCell>
        <mxCell id="EIEUfee_KxQl2WpHq2SJ-2" value="" style="shape=cube;whiteSpace=wrap;html=1;boundedLbl=1;backgroundOutline=1;darkOpacity=0.05;darkOpacity2=0.1;size=10;" vertex="1" parent="1">
          <mxGeometry x="190" y="422" width="210" height="230" as="geometry" />
        </mxCell>
        <mxCell id="j4q45FdJCVuGdoI92-O5-1" value="Usuario Cliente" style="shape=umlActor;verticalLabelPosition=bottom;verticalAlign=top;html=1;outlineConnect=0;" vertex="1" parent="1">
          <mxGeometry x="130" y="140" width="30" height="60" as="geometry" />
        </mxCell>
        <mxCell id="j4q45FdJCVuGdoI92-O5-3" value="" style="shape=cube;whiteSpace=wrap;html=1;boundedLbl=1;backgroundOutline=1;darkOpacity=0.05;darkOpacity2=0.1;size=10;" vertex="1" parent="1">
          <mxGeometry x="240" y="50" width="210" height="230" as="geometry" />
        </mxCell>
        <mxCell id="j4q45FdJCVuGdoI92-O5-4" style="edgeStyle=orthogonalEdgeStyle;rounded=0;orthogonalLoop=1;jettySize=auto;html=1;exitX=0.5;exitY=0.5;exitDx=0;exitDy=0;exitPerimeter=0;entryX=0;entryY=0;entryDx=0;entryDy=35;entryPerimeter=0;" edge="1" parent="1" source="j4q45FdJCVuGdoI92-O5-1" target="j4q45FdJCVuGdoI92-O5-3">
          <mxGeometry relative="1" as="geometry" />
        </mxCell>
        <mxCell id="j4q45FdJCVuGdoI92-O5-5" value="TECLADO" style="edgeLabel;html=1;align=center;verticalAlign=middle;resizable=0;points=[];" vertex="1" connectable="0" parent="j4q45FdJCVuGdoI92-O5-4">
          <mxGeometry x="0.1375" y="-2" relative="1" as="geometry">
            <mxPoint as="offset" />
          </mxGeometry>
        </mxCell>
        <mxCell id="j4q45FdJCVuGdoI92-O5-10" value="" style="rounded=0;whiteSpace=wrap;html=1;" vertex="1" parent="1">
          <mxGeometry x="280" y="90" width="150" height="80" as="geometry" />
        </mxCell>
        <mxCell id="j4q45FdJCVuGdoI92-O5-7" value="" style="shape=module;align=left;spacingLeft=20;align=center;verticalAlign=top;whiteSpace=wrap;html=1;" vertex="1" parent="1">
          <mxGeometry x="340" y="95" width="80" height="50" as="geometry" />
        </mxCell>
        <mxCell id="j4q45FdJCVuGdoI92-O5-11" value="" style="rounded=0;whiteSpace=wrap;html=1;" vertex="1" parent="1">
          <mxGeometry x="280" y="180" width="150" height="80" as="geometry" />
        </mxCell>
        <mxCell id="j4q45FdJCVuGdoI92-O5-12" value="" style="shape=module;align=left;spacingLeft=20;align=center;verticalAlign=top;whiteSpace=wrap;html=1;" vertex="1" parent="1">
          <mxGeometry x="340" y="185" width="80" height="50" as="geometry" />
        </mxCell>
        <mxCell id="j4q45FdJCVuGdoI92-O5-13" value="COMPUTADORA" style="text;html=1;align=center;verticalAlign=middle;whiteSpace=wrap;rounded=0;" vertex="1" parent="1">
          <mxGeometry x="280" y="60" width="60" height="30" as="geometry" />
        </mxCell>
        <mxCell id="j4q45FdJCVuGdoI92-O5-14" value="INTERFAZ" style="text;html=1;align=center;verticalAlign=middle;whiteSpace=wrap;rounded=0;" vertex="1" parent="1">
          <mxGeometry x="320" y="145" width="60" height="30" as="geometry" />
        </mxCell>
        <mxCell id="j4q45FdJCVuGdoI92-O5-15" value="BUSCADOR" style="text;html=1;align=center;verticalAlign=middle;whiteSpace=wrap;rounded=0;" vertex="1" parent="1">
          <mxGeometry x="320" y="235" width="60" height="30" as="geometry" />
        </mxCell>
        <mxCell id="vqtdteVJLbJTmHlzUTwu-6" value="" style="edgeStyle=none;curved=1;rounded=0;orthogonalLoop=1;jettySize=auto;html=1;fontSize=12;startSize=8;endSize=8;entryX=0;entryY=0;entryDx=110;entryDy=140;entryPerimeter=0;exitX=0;exitY=0;exitDx=105;exitDy=0;exitPerimeter=0;endArrow=none;endFill=0;" edge="1" parent="1" source="j4q45FdJCVuGdoI92-O5-16" target="e9J3bj0kBQXm4-Ub7QXE-19">
          <mxGeometry relative="1" as="geometry">
            <mxPoint x="619" y="321" as="sourcePoint" />
            <mxPoint x="621" y="266" as="targetPoint" />
          </mxGeometry>
        </mxCell>
        <mxCell id="vqtdteVJLbJTmHlzUTwu-7" value="IP" style="edgeLabel;html=1;align=center;verticalAlign=middle;resizable=0;points=[];fontSize=12;" connectable="0" vertex="1" parent="vqtdteVJLbJTmHlzUTwu-6">
          <mxGeometry x="-0.5036" y="3" relative="1" as="geometry">
            <mxPoint as="offset" />
          </mxGeometry>
        </mxCell>
        <mxCell id="j4q45FdJCVuGdoI92-O5-16" value="" style="shape=cube;whiteSpace=wrap;html=1;boundedLbl=1;backgroundOutline=1;darkOpacity=0.05;darkOpacity2=0.1;size=10;" vertex="1" parent="1">
          <mxGeometry x="513" y="321" width="220" height="195" as="geometry" />
        </mxCell>
        <mxCell id="j4q45FdJCVuGdoI92-O5-21" value="APLICACION" style="text;html=1;align=center;verticalAlign=middle;whiteSpace=wrap;rounded=0;" vertex="1" parent="1">
          <mxGeometry x="533" y="329" width="60" height="30" as="geometry" />
        </mxCell>
        <mxCell id="e9J3bj0kBQXm4-Ub7QXE-33" value="" style="edgeStyle=none;curved=1;rounded=0;orthogonalLoop=1;jettySize=auto;html=1;fontSize=12;startSize=8;endSize=8;entryX=0;entryY=0;entryDx=115;entryDy=195;entryPerimeter=0;exitX=0;exitY=0;exitDx=100;exitDy=0;exitPerimeter=0;endArrow=none;endFill=0;" edge="1" parent="1" source="j4q45FdJCVuGdoI92-O5-26" target="j4q45FdJCVuGdoI92-O5-16">
          <mxGeometry relative="1" as="geometry" />
        </mxCell>
        <mxCell id="kJmqoYWd53RAW0Z0ZZGS-1" value="TCP" style="edgeLabel;html=1;align=center;verticalAlign=middle;resizable=0;points=[];" connectable="0" vertex="1" parent="e9J3bj0kBQXm4-Ub7QXE-33">
          <mxGeometry x="-0.1378" relative="1" as="geometry">
            <mxPoint as="offset" />
          </mxGeometry>
        </mxCell>
        <mxCell id="j4q45FdJCVuGdoI92-O5-26" value="" style="shape=cube;whiteSpace=wrap;html=1;boundedLbl=1;backgroundOutline=1;darkOpacity=0.05;darkOpacity2=0.1;size=10;" vertex="1" parent="1">
          <mxGeometry x="528" y="570" width="210" height="150" as="geometry" />
        </mxCell>
        <mxCell id="j4q45FdJCVuGdoI92-O5-27" value="" style="rounded=0;whiteSpace=wrap;html=1;" vertex="1" parent="1">
          <mxGeometry x="568" y="610" width="150" height="90" as="geometry" />
        </mxCell>
        <mxCell id="j4q45FdJCVuGdoI92-O5-28" value="" style="shape=module;align=left;spacingLeft=20;align=center;verticalAlign=top;whiteSpace=wrap;html=1;" vertex="1" parent="1">
          <mxGeometry x="628" y="620" width="80" height="50" as="geometry" />
        </mxCell>
        <mxCell id="j4q45FdJCVuGdoI92-O5-29" value="BASE DE DATOS" style="text;html=1;align=center;verticalAlign=middle;whiteSpace=wrap;rounded=0;" vertex="1" parent="1">
          <mxGeometry x="568" y="580" width="100" height="30" as="geometry" />
        </mxCell>
        <mxCell id="j4q45FdJCVuGdoI92-O5-30" value="INFORMACION" style="text;html=1;align=center;verticalAlign=middle;whiteSpace=wrap;rounded=0;" vertex="1" parent="1">
          <mxGeometry x="613" y="675" width="60" height="30" as="geometry" />
        </mxCell>
        <mxCell id="j4q45FdJCVuGdoI92-O5-35" value="" style="rounded=0;whiteSpace=wrap;html=1;" vertex="1" parent="1">
          <mxGeometry x="225" y="443" width="150" height="188" as="geometry" />
        </mxCell>
        <mxCell id="j4q45FdJCVuGdoI92-O5-37" value="SERVIDOR" style="text;html=1;align=center;verticalAlign=middle;whiteSpace=wrap;rounded=0;" vertex="1" parent="1">
          <mxGeometry x="235" y="443" width="60" height="30" as="geometry" />
        </mxCell>
        <mxCell id="j4q45FdJCVuGdoI92-O5-39" value="" style="rounded=0;whiteSpace=wrap;html=1;" vertex="1" parent="1">
          <mxGeometry x="245" y="471" width="120" height="70" as="geometry" />
        </mxCell>
        <mxCell id="j4q45FdJCVuGdoI92-O5-40" value="" style="shape=module;align=left;spacingLeft=20;align=center;verticalAlign=top;whiteSpace=wrap;html=1;" vertex="1" parent="1">
          <mxGeometry x="300" y="478" width="60" height="45" as="geometry" />
        </mxCell>
        <mxCell id="j4q45FdJCVuGdoI92-O5-41" value="TRANSFERENCIA" style="text;html=1;align=center;verticalAlign=middle;whiteSpace=wrap;rounded=0;" vertex="1" parent="1">
          <mxGeometry x="272" y="518" width="60" height="30" as="geometry" />
        </mxCell>
        <mxCell id="j4q45FdJCVuGdoI92-O5-42" value="" style="rounded=0;whiteSpace=wrap;html=1;" vertex="1" parent="1">
          <mxGeometry x="245" y="549" width="120" height="70" as="geometry" />
        </mxCell>
        <mxCell id="j4q45FdJCVuGdoI92-O5-43" value="" style="shape=module;align=left;spacingLeft=20;align=center;verticalAlign=top;whiteSpace=wrap;html=1;" vertex="1" parent="1">
          <mxGeometry x="300" y="556" width="60" height="45" as="geometry" />
        </mxCell>
        <mxCell id="j4q45FdJCVuGdoI92-O5-44" value="CAPTURA" style="text;html=1;align=center;verticalAlign=middle;whiteSpace=wrap;rounded=0;" vertex="1" parent="1">
          <mxGeometry x="265" y="597" width="60" height="30" as="geometry" />
        </mxCell>
        <mxCell id="j4q45FdJCVuGdoI92-O5-47" value="" style="rounded=0;whiteSpace=wrap;html=1;" vertex="1" parent="1">
          <mxGeometry x="588" y="352" width="120" height="70" as="geometry" />
        </mxCell>
        <mxCell id="j4q45FdJCVuGdoI92-O5-48" value="" style="shape=module;align=left;spacingLeft=20;align=center;verticalAlign=top;whiteSpace=wrap;html=1;" vertex="1" parent="1">
          <mxGeometry x="643" y="359" width="60" height="45" as="geometry" />
        </mxCell>
        <mxCell id="j4q45FdJCVuGdoI92-O5-49" value="CONEXION" style="text;html=1;align=center;verticalAlign=middle;whiteSpace=wrap;rounded=0;" vertex="1" parent="1">
          <mxGeometry x="615" y="399" width="60" height="30" as="geometry" />
        </mxCell>
        <mxCell id="j4q45FdJCVuGdoI92-O5-50" value="" style="rounded=0;whiteSpace=wrap;html=1;" vertex="1" parent="1">
          <mxGeometry x="588" y="431" width="120" height="70" as="geometry" />
        </mxCell>
        <mxCell id="j4q45FdJCVuGdoI92-O5-51" value="" style="shape=module;align=left;spacingLeft=20;align=center;verticalAlign=top;whiteSpace=wrap;html=1;" vertex="1" parent="1">
          <mxGeometry x="643" y="438" width="60" height="45" as="geometry" />
        </mxCell>
        <mxCell id="j4q45FdJCVuGdoI92-O5-52" value="WEB SERVICE" style="text;html=1;align=center;verticalAlign=middle;whiteSpace=wrap;rounded=0;" vertex="1" parent="1">
          <mxGeometry x="602" y="478" width="92" height="30" as="geometry" />
        </mxCell>
        <mxCell id="e9J3bj0kBQXm4-Ub7QXE-19" value="" style="shape=cube;whiteSpace=wrap;html=1;boundedLbl=1;backgroundOutline=1;darkOpacity=0.05;darkOpacity2=0.1;size=10;" vertex="1" parent="1">
          <mxGeometry x="510" y="106" width="210" height="140" as="geometry" />
        </mxCell>
        <mxCell id="e9J3bj0kBQXm4-Ub7QXE-20" value="" style="rounded=0;whiteSpace=wrap;html=1;" vertex="1" parent="1">
          <mxGeometry x="550" y="146" width="150" height="80" as="geometry" />
        </mxCell>
        <mxCell id="e9J3bj0kBQXm4-Ub7QXE-21" value="" style="shape=module;align=left;spacingLeft=20;align=center;verticalAlign=top;whiteSpace=wrap;html=1;" vertex="1" parent="1">
          <mxGeometry x="610" y="151" width="80" height="50" as="geometry" />
        </mxCell>
        <mxCell id="e9J3bj0kBQXm4-Ub7QXE-24" value="MODEM" style="text;html=1;align=center;verticalAlign=middle;whiteSpace=wrap;rounded=0;" vertex="1" parent="1">
          <mxGeometry x="550" y="116" width="60" height="30" as="geometry" />
        </mxCell>
        <mxCell id="e9J3bj0kBQXm4-Ub7QXE-25" value="GUI" style="text;html=1;align=center;verticalAlign=middle;whiteSpace=wrap;rounded=0;" vertex="1" parent="1">
          <mxGeometry x="590" y="201" width="60" height="30" as="geometry" />
        </mxCell>
        <mxCell id="e9J3bj0kBQXm4-Ub7QXE-28" value="" style="edgeStyle=none;curved=0;rounded=0;orthogonalLoop=1;jettySize=auto;html=1;fontSize=12;startSize=8;endSize=8;entryX=0;entryY=0;entryDx=210;entryDy=120;entryPerimeter=0;exitX=0;exitY=0;exitDx=0;exitDy=65;exitPerimeter=0;endArrow=none;endFill=0;" edge="1" parent="1" source="e9J3bj0kBQXm4-Ub7QXE-19" target="j4q45FdJCVuGdoI92-O5-3">
          <mxGeometry relative="1" as="geometry">
            <mxPoint x="500" y="262" as="sourcePoint" />
            <mxPoint x="440" y="265" as="targetPoint" />
            <Array as="points" />
          </mxGeometry>
        </mxCell>
        <mxCell id="vqtdteVJLbJTmHlzUTwu-2" value="HTTP" style="edgeLabel;html=1;align=center;verticalAlign=middle;resizable=0;points=[];fontSize=12;" connectable="0" vertex="1" parent="e9J3bj0kBQXm4-Ub7QXE-28">
          <mxGeometry x="-0.1784" y="-3" relative="1" as="geometry">
            <mxPoint as="offset" />
          </mxGeometry>
        </mxCell>
      </root>
    </mxGraphModel>
  </diagram>
</mxfile>
